<?xml version="1.0" encoding="UTF-8"?>
<svg version="1.1" xmlns="http://www.w3.org/2000/svg" width="48" height="48">
<path d="M0 0 C15.84 0 31.68 0 48 0 C48 15.84 48 31.68 48 48 C32.16 48 16.32 48 0 48 C0 32.16 0 16.32 0 0 Z " fill="#FCBB58" transform="translate(0,0)"/>
<path d="M0 0 C1.01964844 -0.01675781 2.03929688 -0.03351562 3.08984375 -0.05078125 C6.74902064 0.39639806 9.43625113 1.68625113 12.0625 4.3125 C12.27317535 5.70237207 12.43121383 7.10039562 12.5625 8.5 C12.82969987 11.18472251 13.14646124 13.77895135 13.625 16.4375 C14.0625 19.3125 14.0625 19.3125 13.875 22.8125 C13.74922482 26.40597727 13.74922482 26.40597727 16.0625 29.0625 C18.0625 32.3125 18.0625 32.3125 18.0625 43.3125 C5.1925 43.3125 -7.6775 43.3125 -20.9375 43.3125 C-19.9375 40.3125 -19.9375 40.3125 -18.1953125 39.21484375 C-17.49148437 38.89644531 -16.78765625 38.57804687 -16.0625 38.25 C-13.47523626 37.06138621 -11.33039013 35.90776008 -8.9375 34.3125 C-9.34911715 31.84279708 -9.71168183 29.72800543 -10.9140625 27.515625 C-12.58607516 23.91633056 -12.82858477 20.0904659 -13.375 16.1875 C-13.89390596 13.53531396 -14.59646981 11.63695234 -15.9375 9.3125 C-15.0294838 8.18050647 -14.11066174 7.05717637 -13.1875 5.9375 C-12.67703125 5.31101562 -12.1665625 4.68453125 -11.640625 4.0390625 C-8.09144336 0.44103891 -4.96406327 0.01877956 0 0 Z " fill="#353535" transform="translate(29.9375,4.6875)"/>
<path d="M0 0 C2.50696229 0.95091673 3.94401245 1.93801378 5.75 3.9375 C7 7 7 7 7 18 C-5.87 18 -18.74 18 -32 18 C-31 15 -31 15 -29.328125 13.90234375 C-27.22286052 12.92489953 -25.11857414 11.94831414 -23 11 C-22.154375 10.5875 -21.30875 10.175 -20.4375 9.75 C-18 9 -18 9 -14.8125 9.25 C-9.34864131 8.89171418 -5.27012451 6.36210953 -1 3 C-0.67 2.01 -0.34 1.02 0 0 Z " fill="#353332" transform="translate(41,30)"/>
<path d="M0 0 C3.5625 0.1875 3.5625 0.1875 5.5625 2.1875 C5.5625 3.5075 5.5625 4.8275 5.5625 6.1875 C6.2225 6.1875 6.8825 6.1875 7.5625 6.1875 C7.8925 4.5375 8.2225 2.8875 8.5625 1.1875 C9.2225 1.8475 9.8825 2.5075 10.5625 3.1875 C10.5390625 5.5703125 10.5390625 5.5703125 10.1875 8.3125 C10.02121094 9.67761719 10.02121094 9.67761719 9.8515625 11.0703125 C9.70847656 12.11832031 9.70847656 12.11832031 9.5625 13.1875 C8.9025 13.1875 8.2425 13.1875 7.5625 13.1875 C7.49289063 13.78046875 7.42328125 14.3734375 7.3515625 14.984375 C5.97848166 18.81812546 2.61593314 20.04954542 -0.78125 21.9921875 C-4.33615166 23.59189325 -6.61243147 23.68642198 -10.4375 23.1875 C-11.28334998 21.63174022 -12.11368399 20.0675388 -12.9375 18.5 C-13.4015625 17.62988281 -13.865625 16.75976562 -14.34375 15.86328125 C-15.48568792 13.06961171 -15.65254208 11.17120887 -15.4375 8.1875 C-13.4575 8.1875 -11.4775 8.1875 -9.4375 8.1875 C-9.1075 7.5275 -8.7775 6.8675 -8.4375 6.1875 C-5.4675 6.6825 -5.4675 6.6825 -2.4375 7.1875 C-1.7775 5.5375 -1.1175 3.8875 -0.4375 2.1875 C-1.7575 1.8575 -3.0775 1.5275 -4.4375 1.1875 C-3.4375 0.1875 -3.4375 0.1875 0 0 Z " fill="#7C5F54" transform="translate(33.4375,16.8125)"/>
<path d="M0 0 C3.5625 0.1875 3.5625 0.1875 5.5625 2.1875 C6.03633353 5.82022373 6.0216452 7.54129564 3.875 10.5625 C1.17459763 12.46008004 -0.20810081 12.54632213 -3.4375 12.1875 C-3.4375 12.8475 -3.4375 13.5075 -3.4375 14.1875 C-4.0975 14.1875 -4.7575 14.1875 -5.4375 14.1875 C-5.4375 13.5275 -5.4375 12.8675 -5.4375 12.1875 C-8.0775 12.1875 -10.7175 12.1875 -13.4375 12.1875 C-13.7675 13.5075 -14.0975 14.8275 -14.4375 16.1875 C-14.7675 13.5475 -15.0975 10.9075 -15.4375 8.1875 C-13.4575 8.1875 -11.4775 8.1875 -9.4375 8.1875 C-9.1075 7.5275 -8.7775 6.8675 -8.4375 6.1875 C-5.4675 6.6825 -5.4675 6.6825 -2.4375 7.1875 C-1.7775 5.5375 -1.1175 3.8875 -0.4375 2.1875 C-1.7575 1.8575 -3.0775 1.5275 -4.4375 1.1875 C-3.4375 0.1875 -3.4375 0.1875 0 0 Z " fill="#8A6D62" transform="translate(33.4375,16.8125)"/>
<path d="M0 0 C1.4540625 0.0309375 1.4540625 0.0309375 2.9375 0.0625 C2.9375 0.3925 2.9375 0.7225 2.9375 1.0625 C1.2875 1.3925 -0.3625 1.7225 -2.0625 2.0625 C-1.0725 2.3925 -0.0825 2.7225 0.9375 3.0625 C0.6075 4.7125 0.2775 6.3625 -0.0625 8.0625 C-4.69093064 9.38490875 -9.28326604 9.0625 -14.0625 9.0625 C-15.1875 3.3125 -15.1875 3.3125 -14.0625 1.0625 C-13.35222656 1.07410156 -12.64195313 1.08570312 -11.91015625 1.09765625 C-10.99105469 1.10667969 -10.07195313 1.11570312 -9.125 1.125 C-7.75021484 1.14240234 -7.75021484 1.14240234 -6.34765625 1.16015625 C-3.30684081 1.03020687 -3.32631664 0.06788401 0 0 Z " fill="#7B6258" transform="translate(32.0625,15.9375)"/>
<path d="M0 0 C2.64 0 5.28 0 8 0 C8 0.66 8 1.32 8 2 C8.66 2 9.32 2 10 2 C10 2.66 10 3.32 10 4 C10.66 4 11.32 4 12 4 C12.125 6.375 12.125 6.375 12 9 C10 11 10 11 6.375 11.125 C5.26125 11.08375 4.1475 11.0425 3 11 C0.84694043 7.14243493 -0.39253254 4.44870215 0 0 Z " fill="#8B6A63" transform="translate(20,29)"/>
<path d="M0 0 C1.01964844 -0.01675781 2.03929688 -0.03351562 3.08984375 -0.05078125 C6.48425923 0.36404219 8.38194901 1.20458974 11.0625 3.3125 C11.0625 4.3025 11.0625 5.2925 11.0625 6.3125 C8.4225 5.6525 5.7825 4.9925 3.0625 4.3125 C3.0625 3.6525 3.0625 2.9925 3.0625 2.3125 C-3.50967747 2.65244021 -6.18777761 3.78895487 -10.9375 8.3125 C-11.9275 8.8075 -11.9275 8.8075 -12.9375 9.3125 C-13.58963292 11.33713255 -13.58963292 11.33713255 -13.9375 13.3125 C-14.5975 11.9925 -15.2575 10.6725 -15.9375 9.3125 C-15.0294838 8.18050647 -14.11066174 7.05717637 -13.1875 5.9375 C-12.67703125 5.31101562 -12.1665625 4.68453125 -11.640625 4.0390625 C-8.09144336 0.44103891 -4.96406327 0.01877956 0 0 Z " fill="#474640" transform="translate(29.9375,4.6875)"/>
<path d="M0 0 C3.3 0.33 6.6 0.66 10 1 C10 2.32 10 3.64 10 5 C5.23692563 5.95261487 0.8333472 6.08333357 -4 6 C-4.33 7.32 -4.66 8.64 -5 10 C-5.33 7.36 -5.66 4.72 -6 2 C-4.02 2 -2.04 2 0 2 C0 1.34 0 0.68 0 0 Z " fill="#B58B84" transform="translate(24,23)"/>
<path d="M0 0 C0.99 0.33 1.98 0.66 3 1 C2.01 1.495 2.01 1.495 1 2 C0.87753906 2.63421875 0.75507812 3.2684375 0.62890625 3.921875 C0 6 0 6 -1.84765625 7.265625 C-2.57855469 7.59046875 -3.30945312 7.9153125 -4.0625 8.25 C-4.79597656 8.58515625 -5.52945313 8.9203125 -6.28515625 9.265625 C-7.13400391 9.62914062 -7.13400391 9.62914062 -8 10 C-8 8.35 -8 6.7 -8 5 C-8.66 5 -9.32 5 -10 5 C-9.67 4.01 -9.34 3.02 -9 2 C-8.01 2.33 -7.02 2.66 -6 3 C-5.01 3 -4.02 3 -3 3 C-2.34 3 -1.68 3 -1 3 C-0.67 2.01 -0.34 1.02 0 0 Z " fill="#71574C" transform="translate(40,28)"/>
<path d="M0 0 C1.4540625 0.0309375 1.4540625 0.0309375 2.9375 0.0625 C2.9375 0.3925 2.9375 0.7225 2.9375 1.0625 C1.2875 1.3925 -0.3625 1.7225 -2.0625 2.0625 C-1.0725 2.3925 -0.0825 2.7225 0.9375 3.0625 C0.9375 4.3825 0.9375 5.7025 0.9375 7.0625 C-1.3725 7.0625 -3.6825 7.0625 -6.0625 7.0625 C-6.0625 6.0725 -6.0625 5.0825 -6.0625 4.0625 C-8.7025 3.4025 -11.3425 2.7425 -14.0625 2.0625 C-10.46761999 1.16378 -7.71659628 1.0625 -4.0625 1.0625 C-3.0625 0.0625 -3.0625 0.0625 0 0 Z " fill="#6A5954" transform="translate(32.0625,15.9375)"/>
<path d="M0 0 C1.65 0 3.3 0 5 0 C4.125 4.875 4.125 4.875 3 6 C1.33382885 6.04063832 -0.33388095 6.042721 -2 6 C-2 6.66 -2 7.32 -2 8 C-2.66 8 -3.32 8 -4 8 C-4 7.01 -4 6.02 -4 5 C-2.02 5 -0.04 5 2 5 C2 3.68 2 2.36 2 1 C1.34 0.67 0.68 0.34 0 0 Z " fill="#9B736A" transform="translate(32,23)"/>
<path d="M0 0 C0.66 0.33 1.32 0.66 2 1 C-0.625 4.875 -0.625 4.875 -4 6 C-4.33 7.98 -4.66 9.96 -5 12 C-5.99 11.34 -6.98 10.68 -8 10 C-6.5682479 4.98886765 -4.01554307 3.05530451 0 0 Z " fill="#695844" transform="translate(22,6)"/>
<path d="M0 0 C0.66 0 1.32 0 2 0 C2 0.66 2 1.32 2 2 C4.31 2 6.62 2 9 2 C9 2.99 9 3.98 9 5 C6.69 5 4.38 5 2 5 C1.34 3.35 0.68 1.7 0 0 Z " fill="#977563" transform="translate(21,35)"/>
<path d="M0 0 C1.65 0 3.3 0 5 0 C4.67 1.32 4.34 2.64 4 4 C3.34 4 2.68 4 2 4 C1.67 5.32 1.34 6.64 1 8 C0.67 5.36 0.34 2.72 0 0 Z " fill="#AA806C" transform="translate(18,25)"/>
<path d="M0 0 C0.99 0.33 1.98 0.66 3 1 C2.01 1.495 2.01 1.495 1 2 C0.9175 2.61875 0.835 3.2375 0.75 3.875 C0 6 0 6 -3.0625 7.75 C-4.5165625 8.36875 -4.5165625 8.36875 -6 9 C-5 6 -5 6 -2 4 C-0.80767387 1.94996045 -0.80767387 1.94996045 0 0 Z " fill="#59473D" transform="translate(40,28)"/>
<path d="M0 0 C2.31 0.33 4.62 0.66 7 1 C6.67 1.99 6.34 2.98 6 4 C4.0625 4.75 4.0625 4.75 2 5 C1.34 4.67 0.68 4.34 0 4 C0 2.68 0 1.36 0 0 Z " fill="#6D524A" transform="translate(20,29)"/>
<path d="M0 0 C1.98 0.66 3.96 1.32 6 2 C2.93882432 4.62386487 2.26826873 5 -2 5 C-2 4.34 -2 3.68 -2 3 C-1.34 3 -0.68 3 0 3 C0 2.01 0 1.02 0 0 Z " fill="#4B4341" transform="translate(26,13)"/>
<path d="M0 0 C-0.99 1.98 -1.98 3.96 -3 6 C-3.66 5.67 -4.32 5.34 -5 5 C-5 4.01 -5 3.02 -5 2 C-6.32 1.67 -7.64 1.34 -9 1 C-2.25 -1.125 -2.25 -1.125 0 0 Z " fill="#534239" transform="translate(33,39)"/>
<path d="M0 0 C1.10844919 3.32534757 0.84454356 5.62182575 0 9 C-0.33 8.34 -0.66 7.68 -1 7 C-1.66 7 -2.32 7 -3 7 C-3 6.01 -3 5.02 -3 4 C-2.34 4 -1.68 4 -1 4 C-0.67 2.68 -0.34 1.36 0 0 Z " fill="#947061" transform="translate(43,20)"/>
<path d="M0 0 C2.31 0.33 4.62 0.66 7 1 C7 1.66 7 2.32 7 3 C4.69 3 2.38 3 0 3 C0 2.01 0 1.02 0 0 Z " fill="#5A4B43" transform="translate(26,20)"/>
</svg>
